HIERARCHY
ROOT Hips
{
	OFFSET 0.00000 0.00000 0.00000
	CHANNELS 6 Xposition Yposition Zposition Yrotation Zrotation Xrotation 
	JOINT Lumbar
	{
		OFFSET 0 0 0
		CHANNELS 3 Zrotation Xrotation Yrotation
		JOINT Neck
		{
			OFFSET 0.00 0.2701 0.00
			CHANNELS 3 Zrotation Xrotation Yrotation
			End Site
			{
				OFFSET 0.00 0.1379 0.00
			}
		}
		JOINT RightShoulder
		{
			OFFSET 0.0119 0.2289 0.1181
			CHANNELS 3 Zrotation Xrotation Yrotation
			JOINT RightElbow
			{
				OFFSET 0.00 -0.1475 0.00
				CHANNELS 2 Zrotation Yrotation
				JOINT RightWrist
				{
					OFFSET 0.00 -0.1605 0.00
					CHANNELS 2 Zrotation Xrotation
					End Site
					{
						OFFSET 0.0040 -0.1068 0.0006
					}
				}
			}
		}
		JOINT LeftShoulder
		{
			OFFSET 0.0119 0.2289 -0.1181
			CHANNELS 3 Zrotation Xrotation Yrotation
			JOINT LeftElbow
			{
				OFFSET 0.00 -0.1475 0.00
				CHANNELS 2 Zrotation Yrotation
				JOINT LeftWrist
				{
					OFFSET 0.00 -0.1605 0.00
					CHANNELS 2 Zrotation Xrotation
					End Site
					{
						OFFSET 0.0040 -0.1068 -0.0006
					}
				}
			}
		}
	}
	JOINT RightHip
	{
		OFFSET 0.0316 -0.0424 0.0458
		CHANNELS 3 Zrotation Xrotation Yrotation
		JOINT RightKnee
		{
			OFFSET 0.00 -0.2438 0.00
			CHANNELS 1 Zrotation
			JOINT RightAnkle
			{
				OFFSET 0.00 -0.2449 0.00
				CHANNELS 3 Zrotation Xrotation Yrotation
				End Site
				{
					OFFSET 0.1237 -0.0542 0.0051
				}
			}
		}
	}
	JOINT LeftHip
	{
		OFFSET 0.0316 -0.0424 -0.0458
		CHANNELS 3 Zrotation Xrotation Yrotation
		JOINT LeftKnee
		{
			OFFSET 0.00 -0.2438 0.00
			CHANNELS 1 Zrotation
			JOINT LeftAnkle
			{
				OFFSET 0.00 -0.2449 0.00
				CHANNELS 3 Zrotation Xrotation Yrotation
				End Site
				{
					OFFSET 0.1237 -0.0542 -0.0051
				}
			}
		}
	}
}
MOTION
Frames: 31
Frame Time: 0.02
0 0.57926 1e-05 181.54946 0 -4.51322 5.13027 2.55872 -3.79504 -37.78723 6.97207 6.09043 30.7544 -24.82911 10.19499 9.97997 81.18334 -0.45858 -2.32318 34.49614 5.40503 -9.79522 9.17926 -78.94521 -3.20554 3.57337 0.72528 2.2568 -1.81261 -12.7807 -10.54372 -2.59864 -12.91596 -7.19226 5.4927 13.88404 -0.75851 -6.58172 2.96277 5.36564
-0.00144 0.57917 -0.00439 181.76178 0 -4.59198 5.28157 2.61687 -3.91431 -37.64538 6.94122 5.96099 30.71044 -24.61678 10.18458 10.19574 81.19062 -0.62857 -2.55294 34.66344 5.70612 -10.18885 9.63092 -79.08596 -3.35169 3.88413 0.372 2.69753 -2.10424 -12.4059 -10.57065 -2.60316 -12.74825 -7.22496 5.98422 13.98765 -0.83834 -6.59131 2.92928 5.12727
-0.00287 0.57908 -0.00877 181.97355 0 -4.67019 5.43134 2.67471 -4.0334 -37.50562 6.91167 5.83372 30.67037 -24.40734 10.17616 10.41068 81.19736 -0.79771 -2.78124 34.83125 6.00362 -10.57912 10.07977 -79.22674 -3.49687 4.19313 0.02039 3.13691 -2.39425 -12.03265 -10.59742 -2.60765 -12.58127 -7.25448 6.47451 14.0877 -0.92315 -6.59946 2.89633 4.89196
-0.00429 0.57899 -0.01315 182.18277 0 -4.74693 5.57782 2.7317 -4.15105 -37.36991 6.88396 5.71041 30.64019 -24.20233 10.1721 10.6243 81.20187 -0.96457 -3.00637 35.0001 6.29539 -10.96069 10.52299 -79.36855 -3.64063 4.49875 -0.32849 3.57466 -2.67899 -11.66117 -10.62467 -2.61194 -12.41584 -7.27867 6.96364 14.18562 -1.01668 -6.60567 2.8638 4.6613
-0.00578 0.57891 -0.01755 182.40261 0 -4.83145 5.74335 2.79295 -4.27403 -37.20921 6.84278 5.56192 30.55131 -23.96775 10.14066 10.84481 81.21803 -1.14286 -3.24882 35.16028 6.62441 -11.38944 10.99747 -79.50435 -3.79316 4.82306 -0.69243 4.02044 -2.98966 -11.2794 -10.65038 -2.61714 -12.24248 -7.33957 7.45765 14.30817 -1.04963 -6.62664 2.82734 4.39974
-0.00711 0.57881 -0.02191 182.6017 0 -4.8994 5.86732 2.84532 -4.38721 -37.10392 6.83266 5.46972 30.59095 -23.80008 10.1701 11.05059 81.20965 -1.29726 -3.45405 35.34081 6.86964 -11.71721 11.40438 -79.65314 -3.92616 5.10698 -1.02376 4.44918 -3.24651 -10.92041 -10.67867 -2.62051 -12.08588 -7.31701 7.94171 14.36942 -1.22041 -6.61331 2.80042 4.20806
-0.00798 0.57869 -0.02627 182.73015 0 -4.92196 5.88515 2.87228 -4.46216 -37.13436 6.88992 5.51258 30.96381 -23.78527 10.35131 11.21957 81.12979 -1.38351 -3.56139 35.56575 6.92047 -11.77153 11.63729 -79.83984 -4.01395 5.28765 -1.27443 4.83768 -3.34505 -10.61076 -10.721 -2.61766 -11.9744 -7.10333 8.40329 14.33367 -1.70799 -6.52713 2.78983 4.17315
-0.00867 0.57856 -0.03059 182.83988 0 -4.9277 5.85952 2.89053 -4.52937 -37.22406 6.98202 5.61655 31.47084 -23.84433 10.59799 11.37324 81.02579 -1.44613 -3.63036 35.81326 6.87954 -11.72306 11.7998 -80.03945 -4.08056 5.42615 -1.49085 5.20799 -3.39097 -10.32603 -10.76486 -2.61312 -11.87993 -6.7981 8.85413 14.22304 -2.34635 -6.40214 2.79056 4.21408
-0.00942 0.57844 -0.03488 182.96746 0 -4.94095 5.84806 2.91331 -4.6075 -37.29782 7.07016 5.70524 31.93108 -23.88972 10.82464 11.53147 80.93511 -1.52109 -3.71382 36.05887 6.85711 -11.71804 11.9868 -80.23215 -4.15125 5.57892 -1.71704 5.58291 -3.46762 -10.03862 -10.80341 -2.61013 -11.77831 -6.50859 9.30763 14.0991 -2.95876 -6.28059 2.79285 4.24553
-0.01028 0.57832 -0.03935 183.05703 0 -4.95493 5.85983 2.93344 -4.65439 -37.32476 7.10798 5.73914 32.33134 -23.84917 11.00705 11.69939 80.83439 -1.5893 -3.80973 36.27073 6.93435 -11.7264 12.20598 -80.42946 -4.24517 5.75268 -1.96723 5.97392 -3.51622 -9.71569 -10.86088 -2.60396 -11.67431 -6.32755 9.77166 14.17352 -3.39415 -6.21917 2.76748 4.17695
-0.01086 0.57818 -0.04344 183.21952 0 -4.9632 5.81332 2.95732 -4.76449 -37.46382 7.25912 5.90428 32.88845 -24.00762 11.30112 11.84402 80.749 -1.66593 -3.87056 36.55627 6.78002 -11.68294 12.34072 -80.61996 -4.28586 5.87222 -2.1598 6.32618 -3.60982 -9.47148 -10.88004 -2.60386 -11.57926 -5.89983 10.20965 13.81881 -4.23062 -6.02305 2.80161 4.32792
-0.01072 0.57794 -0.04663 183.60248 0 -4.9615 5.61293 2.99131 -5.05062 -37.89269 7.71188 6.39338 33.84514 -24.67467 11.85251 11.92363 80.71057 -1.77177 -3.84448 37.05562 6.02887 -11.51837 12.26586 -80.79082 -4.18325 5.85646 -2.19742 6.584 -3.84769 -9.44859 -10.78677 -2.6223 -11.50484 -4.80644 10.59241 12.28274 -6.16382 -5.4676 3.00385 5.12494
-0.0103 0.57767 -0.04943 184.056 0 -4.95436 5.35608 3.02992 -5.40032 -38.43274 8.27748 7.01594 34.95475 -25.54231 12.51973 11.98119 80.68865 -1.88684 -3.78446 37.62448 5.04525 -11.30639 12.10734 -80.95386 -4.02805 5.78674 -2.17899 6.80184 -4.1308 -9.50224 -10.65607 -2.64667 -11.43876 -3.47042 10.94686 10.32076 -8.48795 -4.7782 3.26405 6.12936
-0.01001 0.57743 -0.05235 184.46863 0 -4.94859 5.12739 3.06781 -5.72163 -38.92611 8.79391 7.59391 35.99536 -26.33487 13.15787 12.05177 80.65997 -1.99759 -3.7394 38.15227 4.15335 -11.11742 11.98293 -81.11907 -3.898 5.73912 -2.18906 7.03282 -4.38916 -9.51413 -10.54665 -2.66738 -11.36889 -2.24856 11.30493 8.56263 -10.61929 -4.14702 3.49377 7.00061
-0.00969 0.57715 -0.0555 184.92097 0 -4.94675 4.88655 3.09912 -6.04211 -39.40774 9.3048 8.10985 37.0403 -27.0679 13.70214 12.10909 80.62721 -2.10811 -3.69432 38.7246 3.31223 -10.91619 11.87238 -81.29096 -3.7621 5.70058 -2.18533 7.28484 -4.66554 -9.556 -10.41931 -2.69202 -11.29987 -1.0023 11.70117 6.75587 -12.83055 -3.52224 3.74259 8.03896
-0.00938 0.57693 -0.05808 185.30371 0 -4.93584 4.65825 3.14591 -6.3776 -39.93641 9.85086 8.78129 38.10861 -27.96438 14.46443 12.18905 80.60729 -2.2215 -3.64255 39.21567 2.3174 -10.73369 11.71424 -81.4464 -3.62595 5.63046 -2.19723 7.48322 -4.91309 -9.55374 -10.3203 -2.70999 -11.23051 0.24359 12.01195 4.95346 -14.9527 -2.85713 3.96374 8.77733
-0.00912 0.57689 -0.05924 185.51018 0 -4.89967 4.47783 3.22971 -6.75538 -40.59396 10.48964 9.88854 39.2218 -29.32453 15.83576 12.33662 80.61807 -2.34145 -3.57391 39.50572 0.90333 -10.58869 11.4432 -81.56267 -3.50413 5.4899 -2.26815 7.54785 -5.09323 -9.40715 -10.30958 -2.70725 -11.16099 1.48016 12.08787 3.24092 -16.84922 -2.07697 4.10747 8.63832
-0.0089 0.57691 -0.05983 185.63801 0 -4.85501 4.31229 3.32984 -7.14313 -41.28996 11.1554 11.13998 40.34909 -30.83029 17.41541 12.50795 80.64153 -2.46386 -3.50129 39.70419 -0.64725 -10.46986 11.12773 -81.66187 -3.3836 5.31892 -2.35636 7.55902 -5.2385 -9.2143 -10.32849 -2.69773 -11.09035 2.69816 12.07966 1.55347 -18.62101 -1.26798 4.21904 8.19008
-0.00868 0.5769 -0.06064 185.78024 0 -4.81519 4.14049 3.42558 -7.51554 -41.95077 11.79344 12.29957 41.45779 -32.22893 18.87642 12.66859 80.65967 -2.58474 -3.43493 39.91761 -2.1011 -10.35601 10.83437 -81.76584 -3.26117 5.15982 -2.43557 7.59186 -5.38505 -9.04465 -10.33324 -2.6919 -11.0181 3.89047 12.11413 -0.12868 -20.37187 -0.49618 4.33636 7.88124
-0.00837 0.57689 -0.06159 186.01519 0 -4.77064 3.96454 3.5087 -7.93551 -42.6898 12.50079 13.57533 42.62396 -33.80805 20.44346 12.82769 80.67617 -2.70787 -3.34807 40.24492 -3.70987 -10.16772 10.53048 -81.88175 -3.14238 5.00723 -2.51816 7.63476 -5.59557 -8.86759 -10.33964 -2.6838 -10.95453 5.23463 12.12982 -1.89911 -22.46052 0.38249 4.4923 7.58231
-0.00826 0.57689 -0.06212 186.03718 0 -4.73447 3.80154 3.62192 -8.25832 -43.27419 13.06859 14.64116 43.67099 -35.04251 21.83666 12.99633 80.69932 -2.82652 -3.30402 40.31379 -5.02496 -10.14317 10.2384 -81.96937 -3.01708 4.83431 -2.5979 7.64405 -5.66282 -8.69513 -10.3501 -2.67863 -10.87321 6.25587 12.1638 -3.47055 -23.81544 1.04305 4.56048 7.18927
-0.0087 0.57691 -0.06171 185.49147 0 -4.71937 3.67078 3.81383 -8.30654 -43.41611 13.24431 15.09479 44.39069 -35.29391 22.70554 13.18197 80.73378 -2.93411 -3.37418 39.67884 -5.49698 -10.54753 9.99644 -81.97818 -2.87312 4.61498 -2.67098 7.57759 -5.35226 -8.5368 -10.36499 -2.68411 -10.73716 6.37928 12.27889 -4.52507 -23.13253 1.0987 4.38474 6.58832
-0.00936 0.57694 -0.06088 184.73326 0 -4.71371 3.55282 4.0353 -8.25686 -43.40166 13.27789 15.33084 44.98789 -35.19146 23.39008 13.37703 80.77505 -3.03654 -3.48868 38.78922 -5.66706 -11.11797 9.76726 -81.95987 -2.72289 4.37607 -2.73966 7.47839 -4.89648 -8.38644 -10.38305 -2.69258 -10.58446 6.17848 12.41332 -5.37169 -21.7214 0.9325 4.12332 5.90698
-0.00992 0.57696 -0.06018 184.07164 0 -4.70659 3.42917 4.24376 -8.25446 -43.46212 13.37628 15.66417 45.6375 -35.24731 24.15452 13.57035 80.81582 -3.14022 -3.58628 38.02376 -5.97366 -11.62519 9.52815 -81.95749 -2.57608 4.14492 -2.80729 7.39201 -4.50124 -8.23815 -10.39959 -2.69907 -10.44318 6.13265 12.53275 -6.29585 -20.66941 0.86409 3.907 5.27664
-0.01046 0.577 -0.0597 183.40857 0 -4.68762 3.3054 4.45191 -8.24144 -43.50761 13.47558 16.00995 46.30298 -35.31952 24.94417 13.7543 80.8465 -3.24924 -3.66991 37.21852 -6.28913 -12.08652 9.30422 -81.94014 -2.42698 3.91755 -2.8891 7.3133 -4.12899 -8.06303 -10.41751 -2.70794 -10.28526 6.05665 12.67641 -7.29682 -19.49433 0.80893 3.66341 4.57351
-0.0111 0.577 -0.05868 182.6974 0 -4.69517 3.18483 4.66638 -8.2262 -43.54682 13.53789 16.27553 46.90419 -35.271 25.63289 13.95902 80.89914 -3.34508 -3.79331 36.43818 -6.51136 -12.67632 9.05307 -81.94666 -2.281 3.67795 -2.93916 7.21047 -3.6734 -7.94781 -10.4329 -2.71268 -10.1585 5.96353 12.77407 -8.08134 -18.40421 0.67391 3.45689 4.00823
-0.0119 0.57691 -0.0563 181.91974 0 -4.77769 3.06887 4.89992 -8.2362 -43.60442 13.54062 16.37765 47.37316 -34.98048 26.10145 14.22411 81.01492 -3.41294 -4.01484 35.77819 -6.55919 -13.63161 8.71743 -82.03515 -2.14686 3.41087 -2.91005 7.0583 -3.03439 -7.98461 -10.44038 -2.70509 -10.11875 5.9291 12.75032 -8.3818 -17.72656 0.36509 3.37208 3.833
-0.0128 0.57678 -0.05338 181.09866 0 -4.88558 2.95572 5.13662 -8.24561 -43.66114 13.50937 16.40486 47.77826 -34.57915 26.47002 14.50843 81.15167 -3.46658 -4.27489 35.15495 -6.52096 -14.69942 8.35549 -82.14691 -2.01604 3.13234 -2.8471 6.88143 -2.31406 -8.08469 -10.44499 -2.69331 -10.11191 5.88368 12.67777 -8.46054 -17.15983 -0.01529 3.32796 3.80251
-0.01367 0.57667 -0.05067 180.28852 0 -4.97956 2.84207 5.36656 -8.25076 -43.71995 13.48849 16.46263 48.20316 -34.22452 26.87609 14.78065 81.27608 -3.52176 -4.51807 34.52184 -6.51568 -15.68363 8.0097 -82.24197 -1.88221 2.85779 -2.79541 6.71025 -1.62448 -8.16236 -10.45099 -2.6836 -10.09159 5.82589 12.62166 -8.59897 -16.54354 -0.35796 3.26646 3.71434
-0.01447 0.57655 -0.04811 179.50828 0 -5.08499 2.72607 5.62187 -8.27283 -43.76702 13.48433 16.52797 48.66478 -33.8726 27.31445 15.06839 81.41277 -3.59669 -4.76072 33.84918 -6.52688 -16.81622 7.64601 -82.36204 -1.75328 2.58635 -2.76329 6.56176 -0.95823 -8.20974 -10.45719 -2.67327 -10.0629 5.83017 12.59181 -8.90116 -15.8996 -0.72982 3.19739 3.58989
-0.01545 0.57645 -0.0451 178.6579 0 -5.17115 2.61488 5.8224 -8.25923 -43.83932 13.43882 16.56212 49.03376 -33.49392 27.65783 15.32702 81.52855 -3.62826 -5.01226 33.27317 -6.48606 -17.65737 7.31395 -82.43576 -1.61655 2.30769 -2.67949 6.35995 -0.22319 -8.33984 -10.4617 -2.66322 -10.06162 5.70671 12.49367 -8.81528 -15.3473 -1.05553 3.15473 3.57531
